---
# Copyright 2023 Antoine Aubry, Catarina Tavares
# 
# This file is part of GlutenFreeMap.
# 
# GlutenFreeMap is free software: you can redistribute it and/or modify it under the terms of
# the GNU General Public License as published by the Free Software Foundation,
# either version 3 of the License, or (at your option) any later version.
# 
# GlutenFreeMap is distributed in the hope that it will be useful, but WITHOUT ANY WARRANTY;
# without even the implied warranty of MERCHANTABILITY or FITNESS FOR A PARTICULAR PURPOSE.
# See the GNU General Public License for more details.
# 
# You should have received a copy of the GNU General Public License along with GlutenFreeMap.
# If not, see <https://www.gnu.org/licenses/>.
---
<?xml version="1.0" encoding="UTF-8" standalone="no"?>
<svg
   xmlns:dc="http://purl.org/dc/elements/1.1/"
   xmlns:cc="http://creativecommons.org/ns#"
   xmlns:rdf="http://www.w3.org/1999/02/22-rdf-syntax-ns#"
   xmlns:svg="http://www.w3.org/2000/svg"
   xmlns="http://www.w3.org/2000/svg"
   xmlns:sodipodi="http://sodipodi.sourceforge.net/DTD/sodipodi-0.dtd"
   xmlns:inkscape="http://www.inkscape.org/namespaces/inkscape"
   height="41.601295"
   width="28.126215"
   version="1.1"
   id="Capa_1"
   viewBox="0 0 10.312969 15.253843"
   xml:space="preserve"
   sodipodi:docname="pin.svg"
   inkscape:version="0.92.4 (5da689c313, 2019-01-14)"><metadata
   id="metadata15"><rdf:RDF><cc:Work
       rdf:about=""><dc:format>image/svg+xml</dc:format><dc:type
         rdf:resource="http://purl.org/dc/dcmitype/StillImage" /><dc:title></dc:title></cc:Work></rdf:RDF></metadata><defs
   id="defs13">
	

		
		
	</defs><sodipodi:namedview
   pagecolor="#ffffff"
   bordercolor="#666666"
   borderopacity="1"
   objecttolerance="10"
   gridtolerance="10"
   guidetolerance="10"
   inkscape:pageopacity="0"
   inkscape:pageshadow="2"
   inkscape:window-width="3840"
   inkscape:window-height="2066"
   id="namedview11"
   showgrid="false"
   inkscape:zoom="32"
   inkscape:cx="21.271073"
   inkscape:cy="34.415868"
   inkscape:window-x="-11"
   inkscape:window-y="-11"
   inkscape:window-maximized="1"
   inkscape:current-layer="Capa_1"
   fit-margin-top="0"
   fit-margin-left="0"
   fit-margin-right="0"
   fit-margin-bottom="0" />
<g
   id="Sketch-0"
   transform="matrix(0.26699687,0,0,-0.26699687,5.1564844,5.1571348)"
   style="fill:#2f3031;fill-opacity:1;stroke:#ffffff;stroke-width:2.63166022;stroke-linecap:round;stroke-linejoin:round;stroke-miterlimit:4;stroke-dasharray:none;stroke-opacity:1;paint-order:stroke fill markers"><path
     inkscape:connector-curvature="0"
     id="Sketch_w0000-3"
     d="m -0.47240708,-36.163803 a 0.5,0.5 0 0 1 0.94481408,3e-6 86.2265,86.2265 0 0 0 13.678793,25.0398 18,18 0 1 1 -28.3024,0 86.2265,86.2265 0 0 0 13.678793,-25.0398"
     style="fill:#2f3031;fill-opacity:1;fill-rule:evenodd;stroke:#ffffff;stroke-width:2.63166022;stroke-linecap:round;stroke-linejoin:round;stroke-miterlimit:4;stroke-dasharray:none;stroke-opacity:1;paint-order:stroke fill markers" /><title
     id="title834">b'Sketch'</title></g>
<g
   id="g4622"
   transform="matrix(0.04790751,0,0,0.04790751,-1.8558989,-1.8225636)"><circle
     r="93.272392"
     cy="146.66701"
     cx="146.66701"
     id="path4606"
     style="fill:#2f3031;fill-opacity:1;stroke:none;stroke-width:0.63828367;stroke-miterlimit:4;stroke-dasharray:none;stroke-opacity:1" /><g
     transform="translate(-7.4462891e-6,59.801178)"
     id="g4613"><circle
       style="fill:#ffffff;fill-opacity:1;stroke:none;stroke-width:0.43359512;stroke-miterlimit:4;stroke-dasharray:none;stroke-opacity:1"
       id="path4600"
       cx="146.66701"
       cy="86.865822"
       r="72.06913" /><path
       d="M 84.393987,152.02028 74.655163,140.8493 208.93995,23.763105 218.67884,34.934084 84.393987,152.02028"
       style="fill:#2f3031;fill-opacity:1;fill-rule:nonzero;stroke:none;stroke-width:0.00761744"
       id="path38"
       inkscape:connector-curvature="0" /><g
       id="g4604"
       transform="matrix(1.3085567,0,0,1.3085567,-67.70594,-2.010076)"><path
         inkscape:connector-curvature="0"
         id="path40"
         style="fill:#ffffff;fill-opacity:1;fill-rule:nonzero;stroke:none;stroke-width:0.00636235"
         d="m 163.82428,121.87448 c -2.9744,0 -6.13522,-2.40242 -6.13522,-6.8548 v -5.93416 C 144.74549,106.56475 134.91947,95.106149 134.91947,81.471625 v -5.184048 l 4.01019,-6.5e-4 c -2.54431,-4.22648 -4.01019,-9.167486 -4.01019,-14.432969 v -5.184686 h 4.01019 c -2.54495,-4.227146 -4.01019,-9.166241 -4.01019,-14.431725 v -5.184703 h 5.18467 c 4.21124,0 8.23035,0.935268 11.84544,2.618105 0.26467,-6.852249 3.01575,-13.616706 8.20872,-18.80966 l 3.66598,-3.665359 3.66535,3.665359 c 5.19359,5.192954 7.94531,11.956774 8.20935,18.80966 3.61508,-1.682837 7.63418,-2.618105 11.8448,-2.618105 h 5.18467 v 5.184676 c 0,5.265491 -1.46524,10.204587 -4.00955,14.431734 h 4.00955 v 5.184686 c 0,5.265481 -1.46524,10.205853 -4.00955,14.432998 h 4.00955 v 5.184048 c 0,13.634529 -9.82602,25.093124 -22.76895,27.614534 v 5.93416 c 0,4.45238 -3.16082,6.8548 -6.13522,6.8548" /><path
         inkscape:connector-curvature="0"
         id="path42"
         style="fill:#2f3031;fill-opacity:1;fill-rule:nonzero;stroke:none;stroke-width:0.00636235"
         d="m 188.42267,60.975049 c -11.7131,0 -21.36925,8.775592 -22.76897,20.108857 V 64.303193 c 12.5911,-0.09861 22.76897,-10.331189 22.76897,-22.944564 -11.7131,0 -21.36925,8.775602 -22.76897,20.108866 v -6.379537 c 7.99621,-9.011636 7.68128,-22.807133 -0.95053,-31.438939 -8.63181,8.631806 -8.94674,22.427303 -0.95117,31.439578 v 6.380806 c -1.39908,-11.333899 -11.05523,-20.110774 -22.76897,-20.110774 0,12.613375 10.17786,22.845951 22.76897,22.944564 v 16.783895 c -1.39908,-11.335173 -11.05523,-20.112039 -22.76897,-20.112039 0,12.614641 10.17786,22.84785 22.76897,22.945194 V 100.70413 C 162.35292,89.3696 152.69677,80.592095 140.98303,80.592095 v 6.5e-4 c 0,12.613367 10.17786,22.847205 22.76897,22.945185 v 10.60287 c 0,1.05296 0.42818,1.67011 0.95117,1.67011 0.52298,0 0.95053,-0.61715 0.95053,-1.67011 v -10.6029 c 12.5911,-0.098 22.76897,-10.331819 22.76897,-22.945186 v -6.51e-4 c -11.7131,0 -21.36925,8.776232 -22.76897,20.109497 V 83.920243 c 12.5911,-0.09734 22.76897,-10.330553 22.76897,-22.945194" /></g></g></g></svg>